solid Untitled-5712f5e7
facet normal 0.0 0.0 -1.0
  outer loop
    vertex 121.31050891950851 92.2548142218516 0.0
    vertex 123.3560638772429 90.70189995123648 0.0
    vertex 121.1060638772429 90.70189995123648 0.0
  endloop
endfacet
facet normal 0.0 0.0 -1.0
  outer loop
    vertex 123.3560638772429 90.70189995123648 0.0
    vertex 121.31050891950851 92.2548142218516 0.0
    vertex 121.90991145453627 93.70189995123648 0.0
  endloop
endfacet
facet normal 0.0 0.0 -1.0
  outer loop
    vertex 123.3560638772429 90.70189995123648 0.0
    vertex 121.90991145453627 93.70189995123648 0.0
    vertex 122.86342319012361 94.94454063835578 0.0
  endloop
endfacet
facet normal 0.0 0.0 -1.0
  outer loop
    vertex 123.3560638772429 90.70189995123648 0.0
    vertex 122.86342319012361 94.94454063835578 0.0
    vertex 123.4838420286589 91.67247137037094 0.0
  endloop
endfacet
facet normal 0.0 0.0 -1.0
  outer loop
    vertex 123.4838420286589 91.67247137037094 0.0
    vertex 122.86342319012361 94.94454063835578 0.0
    vertex 124.10606387724292 95.89805237394313 0.0
  endloop
endfacet
facet normal 0.0 0.0 -1.0
  outer loop
    vertex 123.4838420286589 91.67247137037094 0.0
    vertex 124.10606387724292 95.89805237394313 0.0
    vertex 123.85846861305126 92.57689995123648 0.0
  endloop
endfacet
facet normal 0.0 0.0 -1.0
  outer loop
    vertex 123.85846861305126 92.57689995123648 0.0
    vertex 124.10606387724292 95.89805237394313 0.0
    vertex 124.45441344779336 93.35355038068604 0.0
  endloop
endfacet
facet normal 0.0 0.0 -1.0
  outer loop
    vertex 124.45441344779336 93.35355038068604 0.0
    vertex 124.10606387724292 95.89805237394313 0.0
    vertex 125.55314960662777 96.49745490897091 0.0
  endloop
endfacet
facet normal 0.0 0.0 -1.0
  outer loop
    vertex 124.45441344779336 93.35355038068604 0.0
    vertex 125.55314960662777 96.49745490897091 0.0
    vertex 125.2310638772429 93.94949521542813 0.0
  endloop
endfacet
facet normal 0.0 0.0 -1.0
  outer loop
    vertex 125.2310638772429 93.94949521542813 0.0
    vertex 125.55314960662777 96.49745490897091 0.0
    vertex 126.13549245810846 94.32412179982049 0.0
  endloop
endfacet
facet normal 0.0 0.0 -1.0
  outer loop
    vertex 126.13549245810846 94.32412179982049 0.0
    vertex 125.55314960662777 96.49745490897091 0.0
    vertex 127.10606387724292 96.7018999512365 0.0
  endloop
endfacet
facet normal 0.0 0.0 -1.0
  outer loop
    vertex 126.13549245810846 94.32412179982049 0.0
    vertex 127.10606387724292 96.7018999512365 0.0
    vertex 127.10606387724292 94.45189995123648 0.0
  endloop
endfacet
facet normal 0.0 0.0 -1.0
  outer loop
    vertex 127.10606387724292 94.45189995123648 0.0
    vertex 127.10606387724292 96.7018999512365 0.0
    vertex 128.65897814785805 96.49745490897091 0.0
  endloop
endfacet
facet normal 0.0 0.0 -1.0
  outer loop
    vertex 127.10606387724292 94.45189995123648 0.0
    vertex 128.65897814785805 96.49745490897091 0.0
    vertex 128.07663529637736 94.32412179982049 0.0
  endloop
endfacet
facet normal 0.0 0.0 -1.0
  outer loop
    vertex 128.07663529637736 94.32412179982049 0.0
    vertex 128.65897814785805 96.49745490897091 0.0
    vertex 128.98106387724292 93.94949521542813 0.0
  endloop
endfacet
facet normal 0.0 0.0 -1.0
  outer loop
    vertex 128.98106387724292 93.94949521542813 0.0
    vertex 128.65897814785805 96.49745490897091 0.0
    vertex 130.10606387724292 95.89805237394313 0.0
  endloop
endfacet
facet normal 0.0 0.0 -1.0
  outer loop
    vertex 128.98106387724292 93.94949521542813 0.0
    vertex 130.10606387724292 95.89805237394313 0.0
    vertex 129.75771430669246 93.35355038068604 0.0
  endloop
endfacet
facet normal 0.0 0.0 -1.0
  outer loop
    vertex 129.75771430669246 93.35355038068604 0.0
    vertex 130.10606387724292 95.89805237394313 0.0
    vertex 130.35365914143458 92.57689995123648 0.0
  endloop
endfacet
facet normal 0.0 0.0 -1.0
  outer loop
    vertex 130.35365914143458 92.57689995123648 0.0
    vertex 130.10606387724292 95.89805237394313 0.0
    vertex 131.3487045643622 94.94454063835578 0.0
  endloop
endfacet
facet normal 0.0 0.0 -1.0
  outer loop
    vertex 130.35365914143458 92.57689995123648 0.0
    vertex 131.3487045643622 94.94454063835578 0.0
    vertex 130.7282857258269 91.67247137037094 0.0
  endloop
endfacet
facet normal 0.0 0.0 -1.0
  outer loop
    vertex 130.7282857258269 91.67247137037094 0.0
    vertex 131.3487045643622 94.94454063835578 0.0
    vertex 130.85606387724292 90.70189995123648 0.0
  endloop
endfacet
facet normal 0.0 0.0 -1.0
  outer loop
    vertex 130.85606387724292 90.70189995123648 0.0
    vertex 131.3487045643622 94.94454063835578 0.0
    vertex 133.10606387724292 90.70189995123648 0.0
  endloop
endfacet
facet normal 0.0 0.0 -1.0
  outer loop
    vertex 133.10606387724292 90.70189995123648 0.0
    vertex 131.3487045643622 94.94454063835578 0.0
    vertex 132.30221629994955 93.70189995123648 0.0
  endloop
endfacet
facet normal 0.0 0.0 -1.0
  outer loop
    vertex 133.10606387724292 90.70189995123648 0.0
    vertex 132.30221629994955 93.70189995123648 0.0
    vertex 132.9016188349773 92.2548142218516 0.0
  endloop
endfacet
facet normal -0.0 -0.0 1.0
  outer loop
    vertex 130.10606387724292 95.89805237394313 1.9999999999999998
    vertex 125.55314960662777 96.49745490897091 1.9999999999999998
    vertex 124.10606387724292 95.89805237394313 1.9999999999999998
  endloop
endfacet
facet normal -0.0 -0.0 1.0
  outer loop
    vertex 125.55314960662777 96.49745490897091 1.9999999999999998
    vertex 130.10606387724292 95.89805237394313 1.9999999999999998
    vertex 127.10606387724292 96.7018999512365 1.9999999999999998
  endloop
endfacet
facet normal -0.0 -0.0 1.0
  outer loop
    vertex 127.10606387724292 96.7018999512365 1.9999999999999998
    vertex 130.10606387724292 95.89805237394313 1.9999999999999998
    vertex 128.65897814785805 96.49745490897091 1.9999999999999998
  endloop
endfacet
facet normal 0.9238795325112904 0.38268343236508073 0.0
  outer loop
    vertex 132.30221629994955 93.70189995123648 0.0
    vertex 132.9016188349773 92.2548142218516 1.9999999999999998
    vertex 132.9016188349773 92.2548142218516 0.0
  endloop
endfacet
facet normal 0.9238795325112904 0.38268343236508073 0.0
  outer loop
    vertex 132.9016188349773 92.2548142218516 1.9999999999999998
    vertex 132.30221629994955 93.70189995123648 0.0
    vertex 132.30221629994955 93.70189995123648 1.9999999999999998
  endloop
endfacet
facet normal 0.9914448613738096 0.13052619222005876 -0.0
  outer loop
    vertex 132.9016188349773 92.2548142218516 0.0
    vertex 133.10606387724292 90.70189995123648 1.9999999999999998
    vertex 133.10606387724292 90.70189995123648 0.0
  endloop
endfacet
facet normal 0.9914448613738096 0.13052619222005876 -0.0
  outer loop
    vertex 133.10606387724292 90.70189995123648 1.9999999999999998
    vertex 132.9016188349773 92.2548142218516 0.0
    vertex 132.9016188349773 92.2548142218516 1.9999999999999998
  endloop
endfacet
facet normal 0.9914448613738096 -0.1305261922200578 -0.0
  outer loop
    vertex 133.10606387724292 90.70189995123648 0.0
    vertex 132.9016188349773 89.14898568062135 1.9999999999999998
    vertex 132.9016188349773 89.14898568062135 0.0
  endloop
endfacet
facet normal 0.9914448613738096 -0.1305261922200578 -0.0
  outer loop
    vertex 132.9016188349773 89.14898568062135 1.9999999999999998
    vertex 133.10606387724292 90.70189995123648 0.0
    vertex 133.10606387724292 90.70189995123648 1.9999999999999998
  endloop
endfacet
facet normal 0.9238795325112894 -0.38268343236508334 0.0
  outer loop
    vertex 132.9016188349773 89.14898568062135 0.0
    vertex 132.30221629994955 87.70189995123647 1.9999999999999998
    vertex 132.30221629994955 87.70189995123647 0.0
  endloop
endfacet
facet normal 0.9238795325112894 -0.38268343236508334 0.0
  outer loop
    vertex 132.30221629994955 87.70189995123647 1.9999999999999998
    vertex 132.9016188349773 89.14898568062135 0.0
    vertex 132.9016188349773 89.14898568062135 1.9999999999999998
  endloop
endfacet
facet normal 0.7933533402912353 -0.6087614290087208 0.0
  outer loop
    vertex 132.30221629994955 87.70189995123647 0.0
    vertex 131.3487045643622 86.4592592641172 1.9999999999999998
    vertex 131.3487045643622 86.4592592641172 0.0
  endloop
endfacet
facet normal 0.7933533402912353 -0.6087614290087208 0.0
  outer loop
    vertex 131.3487045643622 86.4592592641172 1.9999999999999998
    vertex 132.30221629994955 87.70189995123647 0.0
    vertex 132.30221629994955 87.70189995123647 1.9999999999999998
  endloop
endfacet
facet normal 0.6087614290087172 -0.7933533402912377 0.0
  outer loop
    vertex 131.3487045643622 86.4592592641172 1.9999999999999998
    vertex 130.10606387724292 85.50574752852984 0.0
    vertex 131.3487045643622 86.4592592641172 0.0
  endloop
endfacet
facet normal 0.6087614290087172 -0.7933533402912377 0.0
  outer loop
    vertex 130.10606387724292 85.50574752852984 0.0
    vertex 131.3487045643622 86.4592592641172 1.9999999999999998
    vertex 130.10606387724292 85.50574752852984 1.9999999999999998
  endloop
endfacet
facet normal 0.38268343236508706 -0.9238795325112881 0.0
  outer loop
    vertex 130.10606387724292 85.50574752852984 1.9999999999999998
    vertex 128.65897814785802 84.90634499350206 0.0
    vertex 130.10606387724292 85.50574752852984 0.0
  endloop
endfacet
facet normal 0.38268343236508706 -0.9238795325112881 0.0
  outer loop
    vertex 128.65897814785802 84.90634499350206 0.0
    vertex 130.10606387724292 85.50574752852984 1.9999999999999998
    vertex 128.65897814785802 84.90634499350206 1.9999999999999998
  endloop
endfacet
facet normal 0.13052619222005263 -0.9914448613738104 0.0
  outer loop
    vertex 128.65897814785802 84.90634499350206 1.9999999999999998
    vertex 127.10606387724292 84.70189995123647 0.0
    vertex 128.65897814785802 84.90634499350206 0.0
  endloop
endfacet
facet normal 0.13052619222005263 -0.9914448613738104 0.0
  outer loop
    vertex 127.10606387724292 84.70189995123647 0.0
    vertex 128.65897814785802 84.90634499350206 1.9999999999999998
    vertex 127.10606387724292 84.70189995123647 1.9999999999999998
  endloop
endfacet
facet normal -0.13052619222005074 -0.9914448613738105 -0.0
  outer loop
    vertex 127.10606387724292 84.70189995123647 1.9999999999999998
    vertex 125.55314960662777 84.90634499350206 0.0
    vertex 127.10606387724292 84.70189995123647 0.0
  endloop
endfacet
facet normal -0.13052619222005074 -0.9914448613738105 -0.0
  outer loop
    vertex 125.55314960662777 84.90634499350206 0.0
    vertex 127.10606387724292 84.70189995123647 1.9999999999999998
    vertex 125.55314960662777 84.90634499350206 1.9999999999999998
  endloop
endfacet
facet normal -0.3826834323650931 -0.9238795325112854 0.0
  outer loop
    vertex 125.55314960662777 84.90634499350206 1.9999999999999998
    vertex 124.10606387724289 85.50574752852985 0.0
    vertex 125.55314960662777 84.90634499350206 0.0
  endloop
endfacet
facet normal -0.3826834323650931 -0.9238795325112854 0.0
  outer loop
    vertex 124.10606387724289 85.50574752852985 0.0
    vertex 125.55314960662777 84.90634499350206 1.9999999999999998
    vertex 124.10606387724289 85.50574752852985 1.9999999999999998
  endloop
endfacet
facet normal -0.6087614290087198 -0.793353340291236 0.0
  outer loop
    vertex 124.10606387724289 85.50574752852985 1.9999999999999998
    vertex 122.86342319012361 86.4592592641172 0.0
    vertex 124.10606387724289 85.50574752852985 0.0
  endloop
endfacet
facet normal -0.6087614290087198 -0.793353340291236 0.0
  outer loop
    vertex 122.86342319012361 86.4592592641172 0.0
    vertex 124.10606387724289 85.50574752852985 1.9999999999999998
    vertex 122.86342319012361 86.4592592641172 1.9999999999999998
  endloop
endfacet
facet normal -0.7933533402912353 -0.6087614290087208 -0.0
  outer loop
    vertex 121.90991145453627 87.70189995123647 1.9999999999999998
    vertex 122.86342319012361 86.4592592641172 0.0
    vertex 122.86342319012361 86.4592592641172 1.9999999999999998
  endloop
endfacet
facet normal -0.7933533402912353 -0.6087614290087208 -0.0
  outer loop
    vertex 122.86342319012361 86.4592592641172 0.0
    vertex 121.90991145453627 87.70189995123647 1.9999999999999998
    vertex 121.90991145453627 87.70189995123647 0.0
  endloop
endfacet
facet normal -0.9238795325112855 -0.38268343236509317 -0.0
  outer loop
    vertex 121.31050891950848 89.14898568062135 1.9999999999999998
    vertex 121.90991145453627 87.70189995123647 0.0
    vertex 121.90991145453627 87.70189995123647 1.9999999999999998
  endloop
endfacet
facet normal -0.9238795325112855 -0.38268343236509317 -0.0
  outer loop
    vertex 121.90991145453627 87.70189995123647 0.0
    vertex 121.31050891950848 89.14898568062135 1.9999999999999998
    vertex 121.31050891950848 89.14898568062135 0.0
  endloop
endfacet
facet normal -0.9914448613738114 -0.1305261922200446 0.0
  outer loop
    vertex 121.1060638772429 90.70189995123648 1.9999999999999998
    vertex 121.31050891950848 89.14898568062135 0.0
    vertex 121.31050891950848 89.14898568062135 1.9999999999999998
  endloop
endfacet
facet normal -0.9914448613738114 -0.1305261922200446 0.0
  outer loop
    vertex 121.31050891950848 89.14898568062135 0.0
    vertex 121.1060638772429 90.70189995123648 1.9999999999999998
    vertex 121.1060638772429 90.70189995123648 0.0
  endloop
endfacet
facet normal -0.9914448613738096 0.13052619222005876 0.0
  outer loop
    vertex 121.31050891950851 92.2548142218516 1.9999999999999998
    vertex 121.1060638772429 90.70189995123648 0.0
    vertex 121.1060638772429 90.70189995123648 1.9999999999999998
  endloop
endfacet
facet normal -0.9914448613738096 0.13052619222005876 0.0
  outer loop
    vertex 121.1060638772429 90.70189995123648 0.0
    vertex 121.31050891950851 92.2548142218516 1.9999999999999998
    vertex 121.31050891950851 92.2548142218516 0.0
  endloop
endfacet
facet normal -0.9238795325112904 0.38268343236508073 0.0
  outer loop
    vertex 121.90991145453627 93.70189995123648 1.9999999999999998
    vertex 121.31050891950851 92.2548142218516 0.0
    vertex 121.31050891950851 92.2548142218516 1.9999999999999998
  endloop
endfacet
facet normal -0.9238795325112904 0.38268343236508073 0.0
  outer loop
    vertex 121.31050891950851 92.2548142218516 0.0
    vertex 121.90991145453627 93.70189995123648 1.9999999999999998
    vertex 121.90991145453627 93.70189995123648 0.0
  endloop
endfacet
facet normal -0.7933533402912353 0.6087614290087208 0.0
  outer loop
    vertex 122.86342319012361 94.94454063835578 1.9999999999999998
    vertex 121.90991145453627 93.70189995123648 0.0
    vertex 121.90991145453627 93.70189995123648 1.9999999999999998
  endloop
endfacet
facet normal -0.7933533402912353 0.6087614290087208 0.0
  outer loop
    vertex 121.90991145453627 93.70189995123648 0.0
    vertex 122.86342319012361 94.94454063835578 1.9999999999999998
    vertex 122.86342319012361 94.94454063835578 0.0
  endloop
endfacet
facet normal -0.6087614290087172 0.7933533402912377 -0.0
  outer loop
    vertex 122.86342319012361 94.94454063835578 1.9999999999999998
    vertex 124.10606387724292 95.89805237394313 0.0
    vertex 122.86342319012361 94.94454063835578 0.0
  endloop
endfacet
facet normal -0.6087614290087172 0.7933533402912377 -0.0
  outer loop
    vertex 124.10606387724292 95.89805237394313 0.0
    vertex 122.86342319012361 94.94454063835578 1.9999999999999998
    vertex 124.10606387724292 95.89805237394313 1.9999999999999998
  endloop
endfacet
facet normal -0.382683432365092 0.923879532511286 -0.0
  outer loop
    vertex 124.10606387724292 95.89805237394313 1.9999999999999998
    vertex 125.55314960662777 96.49745490897091 0.0
    vertex 124.10606387724292 95.89805237394313 0.0
  endloop
endfacet
facet normal -0.382683432365092 0.923879532511286 -0.0
  outer loop
    vertex 125.55314960662777 96.49745490897091 0.0
    vertex 124.10606387724292 95.89805237394313 1.9999999999999998
    vertex 125.55314960662777 96.49745490897091 1.9999999999999998
  endloop
endfacet
facet normal -0.13052619222005074 0.9914448613738105 0.0
  outer loop
    vertex 125.55314960662777 96.49745490897091 1.9999999999999998
    vertex 127.10606387724292 96.7018999512365 0.0
    vertex 125.55314960662777 96.49745490897091 0.0
  endloop
endfacet
facet normal -0.13052619222005074 0.9914448613738105 0.0
  outer loop
    vertex 127.10606387724292 96.7018999512365 0.0
    vertex 125.55314960662777 96.49745490897091 1.9999999999999998
    vertex 127.10606387724292 96.7018999512365 1.9999999999999998
  endloop
endfacet
facet normal 0.13052619222005074 0.9914448613738105 0.0
  outer loop
    vertex 127.10606387724292 96.7018999512365 1.9999999999999998
    vertex 128.65897814785805 96.49745490897091 0.0
    vertex 127.10606387724292 96.7018999512365 0.0
  endloop
endfacet
facet normal 0.13052619222005074 0.9914448613738105 0.0
  outer loop
    vertex 128.65897814785805 96.49745490897091 0.0
    vertex 127.10606387724292 96.7018999512365 1.9999999999999998
    vertex 128.65897814785805 96.49745490897091 1.9999999999999998
  endloop
endfacet
facet normal 0.38268343236508706 0.9238795325112881 -0.0
  outer loop
    vertex 128.65897814785805 96.49745490897091 1.9999999999999998
    vertex 130.10606387724292 95.89805237394313 0.0
    vertex 128.65897814785805 96.49745490897091 0.0
  endloop
endfacet
facet normal 0.38268343236508706 0.9238795325112881 -0.0
  outer loop
    vertex 130.10606387724292 95.89805237394313 0.0
    vertex 128.65897814785805 96.49745490897091 1.9999999999999998
    vertex 130.10606387724292 95.89805237394313 1.9999999999999998
  endloop
endfacet
facet normal 0.6087614290087242 0.7933533402912325 -0.0
  outer loop
    vertex 130.10606387724292 95.89805237394313 1.9999999999999998
    vertex 131.3487045643622 94.94454063835578 0.0
    vertex 130.10606387724292 95.89805237394313 0.0
  endloop
endfacet
facet normal 0.6087614290087242 0.7933533402912325 -0.0
  outer loop
    vertex 131.3487045643622 94.94454063835578 0.0
    vertex 130.10606387724292 95.89805237394313 1.9999999999999998
    vertex 131.3487045643622 94.94454063835578 1.9999999999999998
  endloop
endfacet
facet normal 0.7933533402912353 0.6087614290087208 0.0
  outer loop
    vertex 131.3487045643622 94.94454063835578 0.0
    vertex 132.30221629994955 93.70189995123648 1.9999999999999998
    vertex 132.30221629994955 93.70189995123648 0.0
  endloop
endfacet
facet normal 0.7933533402912353 0.6087614290087208 0.0
  outer loop
    vertex 132.30221629994955 93.70189995123648 1.9999999999999998
    vertex 131.3487045643622 94.94454063835578 0.0
    vertex 131.3487045643622 94.94454063835578 1.9999999999999998
  endloop
endfacet
facet normal -0.0 -0.0 1.0
  outer loop
    vertex 125.55314960662777 84.90634499350206 1.9999999999999998
    vertex 130.10606387724292 85.50574752852984 1.9999999999999998
    vertex 124.10606387724289 85.50574752852985 1.9999999999999998
  endloop
endfacet
facet normal -0.0 -0.0 1.0
  outer loop
    vertex 130.10606387724292 85.50574752852984 1.9999999999999998
    vertex 125.55314960662777 84.90634499350206 1.9999999999999998
    vertex 127.10606387724292 84.70189995123647 1.9999999999999998
  endloop
endfacet
facet normal -0.0 -0.0 1.0
  outer loop
    vertex 130.10606387724292 85.50574752852984 1.9999999999999998
    vertex 127.10606387724292 84.70189995123647 1.9999999999999998
    vertex 128.65897814785802 84.90634499350206 1.9999999999999998
  endloop
endfacet
facet normal -0.0 -0.0 1.0
  outer loop
    vertex 131.3487045643622 86.4592592641172 1.9999999999999998
    vertex 133.10606387724292 90.70189995123648 1.9999999999999998
    vertex 130.10606387724292 85.50574752852984 1.9999999999999998
  endloop
endfacet
facet normal -0.0 -0.0 1.0
  outer loop
    vertex 133.10606387724292 90.70189995123648 1.9999999999999998
    vertex 131.3487045643622 86.4592592641172 1.9999999999999998
    vertex 132.30221629994955 87.70189995123647 1.9999999999999998
  endloop
endfacet
facet normal -0.0 -0.0 1.0
  outer loop
    vertex 133.10606387724292 90.70189995123648 1.9999999999999998
    vertex 132.30221629994955 87.70189995123647 1.9999999999999998
    vertex 132.9016188349773 89.14898568062135 1.9999999999999998
  endloop
endfacet
facet normal -0.0 -0.0 1.0
  outer loop
    vertex 121.31050891950848 89.14898568062135 1.9999999999999998
    vertex 124.10606387724289 85.50574752852985 1.9999999999999998
    vertex 121.1060638772429 90.70189995123648 1.9999999999999998
  endloop
endfacet
facet normal -0.0 -0.0 1.0
  outer loop
    vertex 124.10606387724289 85.50574752852985 1.9999999999999998
    vertex 121.31050891950848 89.14898568062135 1.9999999999999998
    vertex 121.90991145453627 87.70189995123647 1.9999999999999998
  endloop
endfacet
facet normal -0.0 -0.0 1.0
  outer loop
    vertex 124.10606387724289 85.50574752852985 1.9999999999999998
    vertex 121.90991145453627 87.70189995123647 1.9999999999999998
    vertex 122.86342319012361 86.4592592641172 1.9999999999999998
  endloop
endfacet
facet normal -0.0 -0.0 1.0
  outer loop
    vertex 124.10606387724292 95.89805237394313 1.9999999999999998
    vertex 121.31050891950851 92.2548142218516 1.9999999999999998
    vertex 121.1060638772429 90.70189995123648 1.9999999999999998
  endloop
endfacet
facet normal -0.0 -0.0 1.0
  outer loop
    vertex 121.31050891950851 92.2548142218516 1.9999999999999998
    vertex 124.10606387724292 95.89805237394313 1.9999999999999998
    vertex 121.90991145453627 93.70189995123648 1.9999999999999998
  endloop
endfacet
facet normal -0.0 -0.0 1.0
  outer loop
    vertex 121.90991145453627 93.70189995123648 1.9999999999999998
    vertex 124.10606387724292 95.89805237394313 1.9999999999999998
    vertex 122.86342319012361 94.94454063835578 1.9999999999999998
  endloop
endfacet
facet normal -0.0 -0.0 1.0
  outer loop
    vertex 133.10606387724292 90.70189995123648 1.9999999999999998
    vertex 131.3487045643622 94.94454063835578 1.9999999999999998
    vertex 130.10606387724292 95.89805237394313 1.9999999999999998
  endloop
endfacet
facet normal -0.0 -0.0 1.0
  outer loop
    vertex 131.3487045643622 94.94454063835578 1.9999999999999998
    vertex 133.10606387724292 90.70189995123648 1.9999999999999998
    vertex 132.30221629994955 93.70189995123648 1.9999999999999998
  endloop
endfacet
facet normal -0.0 -0.0 1.0
  outer loop
    vertex 132.30221629994955 93.70189995123648 1.9999999999999998
    vertex 133.10606387724292 90.70189995123648 1.9999999999999998
    vertex 132.9016188349773 92.2548142218516 1.9999999999999998
  endloop
endfacet
facet normal -0.8659643227648794 0.5001057802968293 -1.4562396973257238e-05
  outer loop
    vertex 122.26076441562216 92.70189995123648 7.999999999999999
    vertex 121.10348761904967 90.70189995123648 6.135209774268591
    vertex 121.1060638772429 90.70189995123648 8.005586999999998
  endloop
endfacet
facet normal -0.8659643227648794 0.5001057802968293 -1.4562396973257238e-05
  outer loop
    vertex 121.10348761904967 90.70189995123648 6.135209774268591
    vertex 122.26076441562216 92.70189995123648 7.999999999999999
    vertex 121.1060638772429 90.70189995123648 1.9999999999999998
  endloop
endfacet
facet normal -0.8659643227648794 0.5001057802968293 -1.4562396973257238e-05
  outer loop
    vertex 121.1060638772429 90.70189995123648 1.9999999999999998
    vertex 122.26076441562216 92.70189995123648 7.999999999999999
    vertex 124.10606387724292 95.89805237394313 1.9999999999999998
  endloop
endfacet
facet normal -0.8659643227648794 0.5001057802968293 -1.4562396973257238e-05
  outer loop
    vertex 124.10606387724292 95.89805237394313 1.9999999999999998
    vertex 122.26076441562216 92.70189995123648 7.999999999999999
    vertex 124.10606387724292 95.89805237394313 7.999999999999999
  endloop
endfacet
facet normal -0.8659222595815806 -0.5001785969783239 -0.00010717240808400783
  outer loop
    vertex 122.26076441562213 88.70189995123648 7.999999999999999
    vertex 124.10606387724289 85.50574752852985 1.9999999999999998
    vertex 124.10606387724289 85.50574752852985 7.999999999999999
  endloop
endfacet
facet normal -0.8659222595815806 -0.5001785969783239 -0.00010717240808400783
  outer loop
    vertex 124.10606387724289 85.50574752852985 1.9999999999999998
    vertex 122.26076441562213 88.70189995123648 7.999999999999999
    vertex 122.2581881574289 88.70189995123648 6.129622774268592
  endloop
endfacet
facet normal -0.8659222595815806 -0.5001785969783239 -0.00010717240808400783
  outer loop
    vertex 124.10606387724289 85.50574752852985 1.9999999999999998
    vertex 122.2581881574289 88.70189995123648 6.129622774268592
    vertex 121.1060638772429 90.70189995123648 1.9999999999999998
  endloop
endfacet
facet normal -0.8659222595815806 -0.5001785969783239 -0.00010717240808400783
  outer loop
    vertex 121.1060638772429 90.70189995123648 1.9999999999999998
    vertex 122.2581881574289 88.70189995123648 6.129622774268592
    vertex 121.10348761904967 90.70189995123648 6.135209774268591
  endloop
endfacet
facet normal -1.8799776550319282e-15 -1.0 -0.0
  outer loop
    vertex 130.10606387724292 85.50574752852984 7.999999999999999
    vertex 124.10606387724289 85.50574752852985 1.9999999999999998
    vertex 130.10606387724292 85.50574752852984 1.9999999999999998
  endloop
endfacet
facet normal -1.8799776550319282e-15 -1.0 -0.0
  outer loop
    vertex 124.10606387724289 85.50574752852985 1.9999999999999998
    vertex 130.10606387724292 85.50574752852984 7.999999999999999
    vertex 124.10606387724289 85.50574752852985 7.999999999999999
  endloop
endfacet
facet normal 0.866025403784438 -0.500000000000001 3.194880742653747e-16
  outer loop
    vertex 133.10606387724292 90.70189995123648 1.9999999999999998
    vertex 130.10606387724292 85.50574752852984 7.999999999999999
    vertex 130.10606387724292 85.50574752852984 1.9999999999999998
  endloop
endfacet
facet normal 0.866025403784438 -0.500000000000001 3.194880742653747e-16
  outer loop
    vertex 130.10606387724292 85.50574752852984 7.999999999999999
    vertex 133.10606387724292 90.70189995123648 1.9999999999999998
    vertex 131.95136333886367 88.70189995123648 7.999999999999999
  endloop
endfacet
facet normal 0.866025403784438 -0.500000000000001 3.194880742653747e-16
  outer loop
    vertex 131.95136333886367 88.70189995123648 7.999999999999999
    vertex 133.10606387724292 90.70189995123648 1.9999999999999998
    vertex 133.10606387724292 90.70189995123648 8.005586999999998
  endloop
endfacet
facet normal 0.8660254037844397 0.4999999999999984 -3.423086509986165e-16
  outer loop
    vertex 130.10606387724292 95.89805237394313 1.9999999999999998
    vertex 133.10606387724292 90.70189995123648 8.005586999999998
    vertex 133.10606387724292 90.70189995123648 1.9999999999999998
  endloop
endfacet
facet normal 0.8660254037844397 0.4999999999999984 -3.423086509986165e-16
  outer loop
    vertex 133.10606387724292 90.70189995123648 8.005586999999998
    vertex 130.10606387724292 95.89805237394313 1.9999999999999998
    vertex 131.95136333886367 92.70189995123648 7.999999999999999
  endloop
endfacet
facet normal 0.8660254037844397 0.4999999999999984 -3.423086509986165e-16
  outer loop
    vertex 131.95136333886367 92.70189995123648 7.999999999999999
    vertex 130.10606387724292 95.89805237394313 1.9999999999999998
    vertex 130.10606387724292 95.89805237394313 7.999999999999999
  endloop
endfacet
facet normal 0.0 1.0 0.0
  outer loop
    vertex 124.10606387724292 95.89805237394313 7.999999999999999
    vertex 130.10606387724292 95.89805237394313 1.9999999999999998
    vertex 124.10606387724292 95.89805237394313 1.9999999999999998
  endloop
endfacet
facet normal 0.0 1.0 0.0
  outer loop
    vertex 130.10606387724292 95.89805237394313 1.9999999999999998
    vertex 124.10606387724292 95.89805237394313 7.999999999999999
    vertex 130.10606387724292 95.89805237394313 7.999999999999999
  endloop
endfacet
facet normal -0.7933528666058685 0.6087610655372204 0.0010927644940254238
  outer loop
    vertex 123.95713928457963 92.70189995123648 9.999998102771052
    vertex 123.85589235485803 92.57689995123648 6.129622774268592
    vertex 123.86122341108225 92.57689995123648 9.999998102771052
  endloop
endfacet
facet normal -0.7933528666058685 0.6087610655372204 0.0010927644940254238
  outer loop
    vertex 123.85589235485803 92.57689995123648 6.129622774268592
    vertex 123.95713928457963 92.70189995123648 9.999998102771052
    vertex 123.9518082283554 92.70189995123648 6.129622774268592
  endloop
endfacet
facet normal -0.7933528666058685 0.6087610655372204 0.0010927644940254238
  outer loop
    vertex 123.9518082283554 92.70189995123648 6.129622774268592
    vertex 123.95713928457963 92.70189995123648 9.999998102771052
    vertex 123.95438448654863 92.70189995123648 7.999999999999999
  endloop
endfacet
facet normal -0.0 -0.0 1.0
  outer loop
    vertex 124.10606387724289 85.50574752852985 7.999999999999999
    vertex 123.95438448654863 88.70189995123648 7.999999999999999
    vertex 122.26076441562213 88.70189995123648 7.999999999999999
  endloop
endfacet
facet normal -0.0 -0.0 1.0
  outer loop
    vertex 123.95438448654863 88.70189995123648 7.999999999999999
    vertex 124.10606387724289 85.50574752852985 7.999999999999999
    vertex 124.45441344779336 88.05024952178692 7.999999999999999
  endloop
endfacet
facet normal -0.0 -0.0 1.0
  outer loop
    vertex 124.45441344779336 88.05024952178692 7.999999999999999
    vertex 124.10606387724289 85.50574752852985 7.999999999999999
    vertex 125.2310638772429 87.45430468704484 7.999999999999999
  endloop
endfacet
facet normal -0.0 -0.0 1.0
  outer loop
    vertex 125.2310638772429 87.45430468704484 7.999999999999999
    vertex 124.10606387724289 85.50574752852985 7.999999999999999
    vertex 126.13549245810846 87.07967810265248 7.999999999999999
  endloop
endfacet
facet normal -0.0 -0.0 1.0
  outer loop
    vertex 126.13549245810846 87.07967810265248 7.999999999999999
    vertex 124.10606387724289 85.50574752852985 7.999999999999999
    vertex 130.10606387724292 85.50574752852984 7.999999999999999
  endloop
endfacet
facet normal -0.0 -0.0 1.0
  outer loop
    vertex 126.13549245810846 87.07967810265248 7.999999999999999
    vertex 130.10606387724292 85.50574752852984 7.999999999999999
    vertex 127.10606387724292 86.95189995123648 7.999999999999999
  endloop
endfacet
facet normal -0.0 -0.0 1.0
  outer loop
    vertex 127.10606387724292 86.95189995123648 7.999999999999999
    vertex 130.10606387724292 85.50574752852984 7.999999999999999
    vertex 128.07663529637736 87.07967810265248 7.999999999999999
  endloop
endfacet
facet normal -0.0 -0.0 1.0
  outer loop
    vertex 128.07663529637736 87.07967810265248 7.999999999999999
    vertex 130.10606387724292 85.50574752852984 7.999999999999999
    vertex 128.98106387724292 87.45430468704484 7.999999999999999
  endloop
endfacet
facet normal -0.0 -0.0 1.0
  outer loop
    vertex 128.98106387724292 87.45430468704484 7.999999999999999
    vertex 130.10606387724292 85.50574752852984 7.999999999999999
    vertex 129.75771430669246 88.05024952178692 7.999999999999999
  endloop
endfacet
facet normal -0.0 -0.0 1.0
  outer loop
    vertex 129.75771430669246 88.05024952178692 7.999999999999999
    vertex 130.10606387724292 85.50574752852984 7.999999999999999
    vertex 130.2577432679372 88.70189995123648 7.999999999999999
  endloop
endfacet
facet normal -0.0 -0.0 1.0
  outer loop
    vertex 130.2577432679372 88.70189995123648 7.999999999999999
    vertex 130.10606387724292 85.50574752852984 7.999999999999999
    vertex 131.95136333886367 88.70189995123648 7.999999999999999
  endloop
endfacet
facet normal 0.0 0.0 -1.0
  outer loop
    vertex 123.3560638772429 90.70189995123648 0.0
    vertex 121.31050891950848 89.14898568062135 0.0
    vertex 121.1060638772429 90.70189995123648 0.0
  endloop
endfacet
facet normal 0.0 0.0 -1.0
  outer loop
    vertex 121.31050891950848 89.14898568062135 0.0
    vertex 123.3560638772429 90.70189995123648 0.0
    vertex 121.90991145453627 87.70189995123647 0.0
  endloop
endfacet
facet normal 0.0 0.0 -1.0
  outer loop
    vertex 121.90991145453627 87.70189995123647 0.0
    vertex 123.3560638772429 90.70189995123648 0.0
    vertex 122.86342319012361 86.4592592641172 0.0
  endloop
endfacet
facet normal 0.0 0.0 -1.0
  outer loop
    vertex 122.86342319012361 86.4592592641172 0.0
    vertex 123.3560638772429 90.70189995123648 0.0
    vertex 123.4838420286589 89.73132853210203 0.0
  endloop
endfacet
facet normal 0.0 0.0 -1.0
  outer loop
    vertex 122.86342319012361 86.4592592641172 0.0
    vertex 123.4838420286589 89.73132853210203 0.0
    vertex 124.10606387724289 85.50574752852985 0.0
  endloop
endfacet
facet normal 0.0 0.0 -1.0
  outer loop
    vertex 124.10606387724289 85.50574752852985 0.0
    vertex 123.4838420286589 89.73132853210203 0.0
    vertex 123.85846861305126 88.82689995123648 0.0
  endloop
endfacet
facet normal 0.0 0.0 -1.0
  outer loop
    vertex 124.10606387724289 85.50574752852985 0.0
    vertex 123.85846861305126 88.82689995123648 0.0
    vertex 124.45441344779336 88.05024952178692 0.0
  endloop
endfacet
facet normal 0.0 0.0 -1.0
  outer loop
    vertex 124.10606387724289 85.50574752852985 0.0
    vertex 124.45441344779336 88.05024952178692 0.0
    vertex 125.55314960662777 84.90634499350206 0.0
  endloop
endfacet
facet normal 0.0 0.0 -1.0
  outer loop
    vertex 125.55314960662777 84.90634499350206 0.0
    vertex 124.45441344779336 88.05024952178692 0.0
    vertex 125.2310638772429 87.45430468704484 0.0
  endloop
endfacet
facet normal 0.0 0.0 -1.0
  outer loop
    vertex 125.55314960662777 84.90634499350206 0.0
    vertex 125.2310638772429 87.45430468704484 0.0
    vertex 126.13549245810846 87.07967810265248 0.0
  endloop
endfacet
facet normal 0.0 0.0 -1.0
  outer loop
    vertex 125.55314960662777 84.90634499350206 0.0
    vertex 126.13549245810846 87.07967810265248 0.0
    vertex 127.10606387724292 84.70189995123647 0.0
  endloop
endfacet
facet normal 0.0 0.0 -1.0
  outer loop
    vertex 127.10606387724292 84.70189995123647 0.0
    vertex 126.13549245810846 87.07967810265248 0.0
    vertex 127.10606387724292 86.95189995123648 0.0
  endloop
endfacet
facet normal 0.0 0.0 -1.0
  outer loop
    vertex 127.10606387724292 84.70189995123647 0.0
    vertex 127.10606387724292 86.95189995123648 0.0
    vertex 128.07663529637736 87.07967810265248 0.0
  endloop
endfacet
facet normal 0.0 0.0 -1.0
  outer loop
    vertex 127.10606387724292 84.70189995123647 0.0
    vertex 128.07663529637736 87.07967810265248 0.0
    vertex 128.65897814785802 84.90634499350206 0.0
  endloop
endfacet
facet normal 0.0 0.0 -1.0
  outer loop
    vertex 128.65897814785802 84.90634499350206 0.0
    vertex 128.07663529637736 87.07967810265248 0.0
    vertex 128.98106387724292 87.45430468704484 0.0
  endloop
endfacet
facet normal 0.0 0.0 -1.0
  outer loop
    vertex 128.65897814785802 84.90634499350206 0.0
    vertex 128.98106387724292 87.45430468704484 0.0
    vertex 130.10606387724292 85.50574752852984 0.0
  endloop
endfacet
facet normal 0.0 0.0 -1.0
  outer loop
    vertex 130.10606387724292 85.50574752852984 0.0
    vertex 128.98106387724292 87.45430468704484 0.0
    vertex 129.75771430669246 88.05024952178692 0.0
  endloop
endfacet
facet normal 0.0 0.0 -1.0
  outer loop
    vertex 130.10606387724292 85.50574752852984 0.0
    vertex 129.75771430669246 88.05024952178692 0.0
    vertex 130.35365914143455 88.82689995123648 0.0
  endloop
endfacet
facet normal 0.0 0.0 -1.0
  outer loop
    vertex 130.10606387724292 85.50574752852984 0.0
    vertex 130.35365914143455 88.82689995123648 0.0
    vertex 131.3487045643622 86.4592592641172 0.0
  endloop
endfacet
facet normal 0.0 0.0 -1.0
  outer loop
    vertex 131.3487045643622 86.4592592641172 0.0
    vertex 130.35365914143455 88.82689995123648 0.0
    vertex 130.7282857258269 89.73132853210203 0.0
  endloop
endfacet
facet normal 0.0 0.0 -1.0
  outer loop
    vertex 131.3487045643622 86.4592592641172 0.0
    vertex 130.7282857258269 89.73132853210203 0.0
    vertex 130.85606387724292 90.70189995123648 0.0
  endloop
endfacet
facet normal 0.0 0.0 -1.0
  outer loop
    vertex 131.3487045643622 86.4592592641172 0.0
    vertex 130.85606387724292 90.70189995123648 0.0
    vertex 133.10606387724292 90.70189995123648 0.0
  endloop
endfacet
facet normal 0.0 0.0 -1.0
  outer loop
    vertex 131.3487045643622 86.4592592641172 0.0
    vertex 133.10606387724292 90.70189995123648 0.0
    vertex 132.30221629994955 87.70189995123647 0.0
  endloop
endfacet
facet normal 0.0 0.0 -1.0
  outer loop
    vertex 132.30221629994955 87.70189995123647 0.0
    vertex 133.10606387724292 90.70189995123648 0.0
    vertex 132.9016188349773 89.14898568062135 0.0
  endloop
endfacet
facet normal 0.9914447752968497 -0.13052618088780857 0.00041670063877541526
  outer loop
    vertex 123.4838420286589 91.67247137037094 0.0
    vertex 123.35348761904967 90.70189995123648 6.129622774268592
    vertex 123.3560638772429 90.70189995123648 0.0
  endloop
endfacet
facet normal 0.9914447752968497 -0.13052618088780857 0.00041670063877541526
  outer loop
    vertex 123.35348761904967 90.70189995123648 6.129622774268592
    vertex 123.4838420286589 91.67247137037094 0.0
    vertex 123.48126577046568 91.67247137037094 6.129622774268592
  endloop
endfacet
facet normal 0.9238794628603059 -0.3826834035146949 0.00038830318331155685
  outer loop
    vertex 123.85846861305126 92.57689995123648 0.0
    vertex 123.48126577046568 91.67247137037094 6.129622774268592
    vertex 123.4838420286589 91.67247137037094 0.0
  endloop
endfacet
facet normal 0.9238794628603059 -0.3826834035146949 0.00038830318331155685
  outer loop
    vertex 123.48126577046568 91.67247137037094 6.129622774268592
    vertex 123.85846861305126 92.57689995123648 0.0
    vertex 123.85589235485803 92.57689995123648 6.129622774268592
  endloop
endfacet
facet normal 0.7930001653702144 -0.6092214190373284 1.757716890774146e-05
  outer loop
    vertex 124.45441344779336 93.35355038068604 0.0
    vertex 123.85589235485803 92.57689995123648 6.129622774268592
    vertex 123.85846861305126 92.57689995123648 0.0
  endloop
endfacet
facet normal 0.7930001653702144 -0.6092214190373284 1.757716890774146e-05
  outer loop
    vertex 123.85589235485803 92.57689995123648 6.129622774268592
    vertex 124.45441344779336 93.35355038068604 0.0
    vertex 123.9518082283554 92.70189995123648 6.129622774268592
  endloop
endfacet
facet normal 0.7930001653702144 -0.6092214190373284 1.757716890774146e-05
  outer loop
    vertex 123.9518082283554 92.70189995123648 6.129622774268592
    vertex 124.45441344779336 93.35355038068604 0.0
    vertex 123.95438448654863 92.70189995123648 7.999999999999999
  endloop
endfacet
facet normal 0.7930001653702144 -0.6092214190373284 1.757716890774146e-05
  outer loop
    vertex 123.95438448654863 92.70189995123648 7.999999999999999
    vertex 124.45441344779336 93.35355038068604 0.0
    vertex 124.45441344779336 93.35355038068604 7.999999999999999
  endloop
endfacet
facet normal 0.608761429008722 -0.7933533402912342 -0.0
  outer loop
    vertex 125.2310638772429 93.94949521542813 7.999999999999999
    vertex 124.45441344779336 93.35355038068604 0.0
    vertex 125.2310638772429 93.94949521542813 0.0
  endloop
endfacet
facet normal 0.608761429008722 -0.7933533402912342 -0.0
  outer loop
    vertex 124.45441344779336 93.35355038068604 0.0
    vertex 125.2310638772429 93.94949521542813 7.999999999999999
    vertex 124.45441344779336 93.35355038068604 7.999999999999999
  endloop
endfacet
facet normal 0.3826834323650878 -0.9238795325112876 -0.0
  outer loop
    vertex 126.13549245810846 94.32412179982049 7.999999999999999
    vertex 125.2310638772429 93.94949521542813 0.0
    vertex 126.13549245810846 94.32412179982049 0.0
  endloop
endfacet
facet normal 0.3826834323650878 -0.9238795325112876 -0.0
  outer loop
    vertex 125.2310638772429 93.94949521542813 0.0
    vertex 126.13549245810846 94.32412179982049 7.999999999999999
    vertex 125.2310638772429 93.94949521542813 7.999999999999999
  endloop
endfacet
facet normal 0.13052619222005538 -0.9914448613738099 -0.0
  outer loop
    vertex 127.10606387724292 94.45189995123648 7.999999999999999
    vertex 126.13549245810846 94.32412179982049 0.0
    vertex 127.10606387724292 94.45189995123648 0.0
  endloop
endfacet
facet normal 0.13052619222005538 -0.9914448613738099 -0.0
  outer loop
    vertex 126.13549245810846 94.32412179982049 0.0
    vertex 127.10606387724292 94.45189995123648 7.999999999999999
    vertex 126.13549245810846 94.32412179982049 7.999999999999999
  endloop
endfacet
facet normal -0.13052619222005538 -0.9914448613738099 -0.0
  outer loop
    vertex 128.07663529637736 94.32412179982049 7.999999999999999
    vertex 127.10606387724292 94.45189995123648 0.0
    vertex 128.07663529637736 94.32412179982049 0.0
  endloop
endfacet
facet normal -0.13052619222005538 -0.9914448613738099 -0.0
  outer loop
    vertex 127.10606387724292 94.45189995123648 0.0
    vertex 128.07663529637736 94.32412179982049 7.999999999999999
    vertex 127.10606387724292 94.45189995123648 7.999999999999999
  endloop
endfacet
facet normal -0.3826834323650878 -0.9238795325112876 -0.0
  outer loop
    vertex 128.98106387724292 93.94949521542813 7.999999999999999
    vertex 128.07663529637736 94.32412179982049 0.0
    vertex 128.98106387724292 93.94949521542813 0.0
  endloop
endfacet
facet normal -0.3826834323650878 -0.9238795325112876 -0.0
  outer loop
    vertex 128.07663529637736 94.32412179982049 0.0
    vertex 128.98106387724292 93.94949521542813 7.999999999999999
    vertex 128.07663529637736 94.32412179982049 7.999999999999999
  endloop
endfacet
facet normal -0.608761429008722 -0.7933533402912342 -0.0
  outer loop
    vertex 129.75771430669246 93.35355038068604 7.999999999999999
    vertex 128.98106387724292 93.94949521542813 0.0
    vertex 129.75771430669246 93.35355038068604 0.0
  endloop
endfacet
facet normal -0.608761429008722 -0.7933533402912342 -0.0
  outer loop
    vertex 128.98106387724292 93.94949521542813 0.0
    vertex 129.75771430669246 93.35355038068604 7.999999999999999
    vertex 128.98106387724292 93.94949521542813 7.999999999999999
  endloop
endfacet
facet normal -0.7933530973919083 -0.6087617455611535 5.1647866524305815e-08
  outer loop
    vertex 130.2577441325978 92.70189995123648 7.999372251791703
    vertex 130.35365914143458 92.57689995123648 0.0
    vertex 130.35366000609517 92.57689995123648 7.999372251791703
  endloop
endfacet
facet normal -0.7933530973919083 -0.6087617455611535 5.1647866524305815e-08
  outer loop
    vertex 130.35365914143458 92.57689995123648 0.0
    vertex 130.2577441325978 92.70189995123648 7.999372251791703
    vertex 129.75771430669246 93.35355038068604 0.0
  endloop
endfacet
facet normal -0.7933530973919083 -0.6087617455611535 5.1647866524305815e-08
  outer loop
    vertex 129.75771430669246 93.35355038068604 0.0
    vertex 130.2577441325978 92.70189995123648 7.999372251791703
    vertex 129.75771430669246 93.35355038068604 7.999999999999999
  endloop
endfacet
facet normal -0.9238795325112871 -0.382683432365076 9.986311548899905e-08
  outer loop
    vertex 130.35366000609517 92.57689995123648 7.999372251791703
    vertex 130.7282857258269 91.67247137037094 0.0
    vertex 130.72828659048753 91.67247137037094 7.999372251791703
  endloop
endfacet
facet normal -0.9238795325112871 -0.382683432365076 9.986311548899905e-08
  outer loop
    vertex 130.7282857258269 91.67247137037094 0.0
    vertex 130.35366000609517 92.57689995123648 7.999372251791703
    vertex 130.35365914143458 92.57689995123648 0.0
  endloop
endfacet
facet normal 1.835345127172371e-05 -4.89467677425283e-05 0.9999999986336825
  outer loop
    vertex 123.95438448654863 92.70189995123648 7.999999999999999
    vertex 124.10606387724292 95.89805237394313 7.999999999999999
    vertex 122.26076441562216 92.70189995123648 7.999999999999999
  endloop
endfacet
facet normal 1.835345127172371e-05 -4.89467677425283e-05 0.9999999986336825
  outer loop
    vertex 124.10606387724292 95.89805237394313 7.999999999999999
    vertex 123.95438448654863 92.70189995123648 7.999999999999999
    vertex 124.45441344779336 93.35355038068604 7.999999999999999
  endloop
endfacet
facet normal 1.835345127172371e-05 -4.89467677425283e-05 0.9999999986336825
  outer loop
    vertex 124.10606387724292 95.89805237394313 7.999999999999999
    vertex 124.45441344779336 93.35355038068604 7.999999999999999
    vertex 125.2310638772429 93.94949521542813 7.999999999999999
  endloop
endfacet
facet normal 1.835345127172371e-05 -4.89467677425283e-05 0.9999999986336825
  outer loop
    vertex 124.10606387724292 95.89805237394313 7.999999999999999
    vertex 125.2310638772429 93.94949521542813 7.999999999999999
    vertex 126.13549245810846 94.32412179982049 7.999999999999999
  endloop
endfacet
facet normal 1.835345127172371e-05 -4.89467677425283e-05 0.9999999986336825
  outer loop
    vertex 124.10606387724292 95.89805237394313 7.999999999999999
    vertex 126.13549245810846 94.32412179982049 7.999999999999999
    vertex 130.10606387724292 95.89805237394313 7.999999999999999
  endloop
endfacet
facet normal 1.835345127172371e-05 -4.89467677425283e-05 0.9999999986336825
  outer loop
    vertex 130.10606387724292 95.89805237394313 7.999999999999999
    vertex 126.13549245810846 94.32412179982049 7.999999999999999
    vertex 127.10606387724292 94.45189995123648 7.999999999999999
  endloop
endfacet
facet normal 1.835345127172371e-05 -4.89467677425283e-05 0.9999999986336825
  outer loop
    vertex 130.10606387724292 95.89805237394313 7.999999999999999
    vertex 127.10606387724292 94.45189995123648 7.999999999999999
    vertex 128.07663529637736 94.32412179982049 7.999999999999999
  endloop
endfacet
facet normal 1.835345127172371e-05 -4.89467677425283e-05 0.9999999986336825
  outer loop
    vertex 130.10606387724292 95.89805237394313 7.999999999999999
    vertex 128.07663529637736 94.32412179982049 7.999999999999999
    vertex 128.98106387724292 93.94949521542813 7.999999999999999
  endloop
endfacet
facet normal 1.835345127172371e-05 -4.89467677425283e-05 0.9999999986336825
  outer loop
    vertex 130.10606387724292 95.89805237394313 7.999999999999999
    vertex 128.98106387724292 93.94949521542813 7.999999999999999
    vertex 129.75771430669246 93.35355038068604 7.999999999999999
  endloop
endfacet
facet normal 1.835345127172371e-05 -4.89467677425283e-05 0.9999999986336825
  outer loop
    vertex 130.10606387724292 95.89805237394313 7.999999999999999
    vertex 129.75771430669246 93.35355038068604 7.999999999999999
    vertex 130.2577441325978 92.70189995123648 7.999372251791703
  endloop
endfacet
facet normal 1.835345127172371e-05 -4.89467677425283e-05 0.9999999986336825
  outer loop
    vertex 130.10606387724292 95.89805237394313 7.999999999999999
    vertex 130.2577441325978 92.70189995123648 7.999372251791703
    vertex 131.95136333886367 92.70189995123648 7.999999999999999
  endloop
endfacet
facet normal -0.9238795325112835 0.3826834323650976 0.0
  outer loop
    vertex 130.7282857258269 89.73132853210203 7.999999999999999
    vertex 130.35365914143455 88.82689995123648 0.0
    vertex 130.35366000609514 88.82689995123648 7.999372251791703
  endloop
endfacet
facet normal -0.9238795325112835 0.3826834323650976 0.0
  outer loop
    vertex 130.35365914143455 88.82689995123648 0.0
    vertex 130.7282857258269 89.73132853210203 7.999999999999999
    vertex 130.7282857258269 89.73132853210203 0.0
  endloop
endfacet
facet normal -0.7933531869575765 0.6087616288369826 2.5096838344924645e-08
  outer loop
    vertex 130.2577432679372 88.70189995123648 7.999999999999999
    vertex 129.75771430669246 88.05024952178692 0.0
    vertex 129.75771430669246 88.05024952178692 7.999999999999999
  endloop
endfacet
facet normal -0.7933531869575765 0.6087616288369826 2.5096838344924645e-08
  outer loop
    vertex 129.75771430669246 88.05024952178692 0.0
    vertex 130.2577432679372 88.70189995123648 7.999999999999999
    vertex 130.35365914143455 88.82689995123648 0.0
  endloop
endfacet
facet normal -0.7933531869575765 0.6087616288369826 2.5096838344924645e-08
  outer loop
    vertex 130.35365914143455 88.82689995123648 0.0
    vertex 130.2577432679372 88.70189995123648 7.999999999999999
    vertex 130.35366000609514 88.82689995123648 7.999372251791703
  endloop
endfacet
facet normal -0.608761429008722 0.7933533402912342 -0.0
  outer loop
    vertex 128.98106387724292 87.45430468704484 7.999999999999999
    vertex 129.75771430669246 88.05024952178692 0.0
    vertex 128.98106387724292 87.45430468704484 0.0
  endloop
endfacet
facet normal -0.608761429008722 0.7933533402912342 -0.0
  outer loop
    vertex 129.75771430669246 88.05024952178692 0.0
    vertex 128.98106387724292 87.45430468704484 7.999999999999999
    vertex 129.75771430669246 88.05024952178692 7.999999999999999
  endloop
endfacet
facet normal -0.3826834323650878 0.9238795325112876 -0.0
  outer loop
    vertex 128.07663529637736 87.07967810265248 7.999999999999999
    vertex 128.98106387724292 87.45430468704484 0.0
    vertex 128.07663529637736 87.07967810265248 0.0
  endloop
endfacet
facet normal -0.3826834323650878 0.9238795325112876 -0.0
  outer loop
    vertex 128.98106387724292 87.45430468704484 0.0
    vertex 128.07663529637736 87.07967810265248 7.999999999999999
    vertex 128.98106387724292 87.45430468704484 7.999999999999999
  endloop
endfacet
facet normal -0.13052619222005538 0.9914448613738099 -0.0
  outer loop
    vertex 127.10606387724292 86.95189995123648 7.999999999999999
    vertex 128.07663529637736 87.07967810265248 0.0
    vertex 127.10606387724292 86.95189995123648 0.0
  endloop
endfacet
facet normal -0.13052619222005538 0.9914448613738099 -0.0
  outer loop
    vertex 128.07663529637736 87.07967810265248 0.0
    vertex 127.10606387724292 86.95189995123648 7.999999999999999
    vertex 128.07663529637736 87.07967810265248 7.999999999999999
  endloop
endfacet
facet normal 0.13052619222005538 0.9914448613738099 0.0
  outer loop
    vertex 126.13549245810846 87.07967810265248 7.999999999999999
    vertex 127.10606387724292 86.95189995123648 0.0
    vertex 126.13549245810846 87.07967810265248 0.0
  endloop
endfacet
facet normal 0.13052619222005538 0.9914448613738099 0.0
  outer loop
    vertex 127.10606387724292 86.95189995123648 0.0
    vertex 126.13549245810846 87.07967810265248 7.999999999999999
    vertex 127.10606387724292 86.95189995123648 7.999999999999999
  endloop
endfacet
facet normal 0.3826834323650878 0.9238795325112876 0.0
  outer loop
    vertex 125.2310638772429 87.45430468704484 7.999999999999999
    vertex 126.13549245810846 87.07967810265248 0.0
    vertex 125.2310638772429 87.45430468704484 0.0
  endloop
endfacet
facet normal 0.3826834323650878 0.9238795325112876 0.0
  outer loop
    vertex 126.13549245810846 87.07967810265248 0.0
    vertex 125.2310638772429 87.45430468704484 7.999999999999999
    vertex 126.13549245810846 87.07967810265248 7.999999999999999
  endloop
endfacet
facet normal 0.608761429008722 0.7933533402912342 0.0
  outer loop
    vertex 124.45441344779336 88.05024952178692 7.999999999999999
    vertex 125.2310638772429 87.45430468704484 0.0
    vertex 124.45441344779336 88.05024952178692 0.0
  endloop
endfacet
facet normal 0.608761429008722 0.7933533402912342 0.0
  outer loop
    vertex 125.2310638772429 87.45430468704484 0.0
    vertex 124.45441344779336 88.05024952178692 7.999999999999999
    vertex 125.2310638772429 87.45430468704484 7.999999999999999
  endloop
endfacet
facet normal -0.86602334473 -0.5000021434611002 0.001192860834002943
  outer loop
    vertex 121.1088186752739 90.70189995123648 10.00558510277105
    vertex 122.26076441562213 88.70189995123648 7.999999999999999
    vertex 122.26351921365313 88.70189995123648 9.999998102771052
  endloop
endfacet
facet normal -0.86602334473 -0.5000021434611002 0.001192860834002943
  outer loop
    vertex 122.26076441562213 88.70189995123648 7.999999999999999
    vertex 121.1088186752739 90.70189995123648 10.00558510277105
    vertex 122.2581881574289 88.70189995123648 6.129622774268592
  endloop
endfacet
facet normal -0.86602334473 -0.5000021434611002 0.001192860834002943
  outer loop
    vertex 122.2581881574289 88.70189995123648 6.129622774268592
    vertex 121.1088186752739 90.70189995123648 10.00558510277105
    vertex 121.10348761904967 90.70189995123648 6.135209774268591
  endloop
endfacet
facet normal -0.86602334473 -0.5000021434611002 0.001192860834002943
  outer loop
    vertex 121.10348761904967 90.70189995123648 6.135209774268591
    vertex 121.1088186752739 90.70189995123648 10.00558510277105
    vertex 121.1060638772429 90.70189995123648 8.005586999999998
  endloop
endfacet
facet normal 0.9246200335027698 -0.3808887246994893 -0.0012542097644973182
  outer loop
    vertex 123.4896695051668 91.67170416853405 7.988378223313933
    vertex 123.4865968266899 91.67247137037094 9.999998102771052
    vertex 123.48126577046568 91.67247137037094 6.129622774268592
  endloop
endfacet
facet normal 0.9246200335027698 -0.3808887246994893 -0.0012542097644973182
  outer loop
    vertex 123.85589235485803 92.57689995123648 6.129622774268592
    vertex 123.48126577046568 91.67247137037094 6.129622774268592
    vertex 123.4865968266899 91.67247137037094 9.999998102771052
  endloop
endfacet
facet normal 0.9246200335027698 -0.3808887246994893 -0.0012542097644973182
  outer loop
    vertex 123.86122341108225 92.57689995123648 9.999998102771052
    vertex 123.85589235485803 92.57689995123648 6.129622774268592
    vertex 123.4865968266899 91.67247137037094 9.999998102771052
  endloop
endfacet
facet normal -0.99144486137381 0.13052619222005535 0.0
  outer loop
    vertex 130.85606387724292 90.70189995123648 7.999999999999999
    vertex 130.7282857258269 89.73132853210203 0.0
    vertex 130.7282857258269 89.73132853210203 7.999999999999999
  endloop
endfacet
facet normal -0.99144486137381 0.13052619222005535 0.0
  outer loop
    vertex 130.7282857258269 89.73132853210203 0.0
    vertex 130.85606387724292 90.70189995123648 7.999999999999999
    vertex 130.85606387724292 90.70189995123648 0.0
  endloop
endfacet
facet normal -0.9914449185268466 -0.1305257580988968 5.357895999295768e-08
  outer loop
    vertex 130.72828659048753 91.67247137037094 7.999372251791703
    vertex 130.85606387724292 90.70189995123648 0.0
    vertex 130.85606387724292 90.70189995123648 7.999999999999999
  endloop
endfacet
facet normal -0.9914449185268466 -0.1305257580988968 5.357895999295768e-08
  outer loop
    vertex 130.85606387724292 90.70189995123648 0.0
    vertex 130.72828659048753 91.67247137037094 7.999372251791703
    vertex 130.7282857258269 91.67247137037094 0.0
  endloop
endfacet
facet normal 0.9914447752968497 0.13052618088780854 0.00041670063877541526
  outer loop
    vertex 123.3560638772429 90.70189995123648 0.0
    vertex 123.48126577046568 89.73132853210203 6.129622774268592
    vertex 123.4838420286589 89.73132853210203 0.0
  endloop
endfacet
facet normal 0.9914447752968497 0.13052618088780854 0.00041670063877541526
  outer loop
    vertex 123.48126577046568 89.73132853210203 6.129622774268592
    vertex 123.3560638772429 90.70189995123648 0.0
    vertex 123.35348761904967 90.70189995123648 6.129622774268592
  endloop
endfacet
facet normal 0.9916948723795673 0.12860585836712332 -0.0013465844679468235
  outer loop
    vertex 123.35348761904967 90.70189995123648 6.129622774268592
    vertex 123.4865968266899 89.73132853210203 9.999998102771052
    vertex 123.48126577046568 89.73132853210203 6.129622774268592
  endloop
endfacet
facet normal 0.9916948723795673 0.12860585836712332 -0.0013465844679468235
  outer loop
    vertex 123.4865968266899 89.73132853210203 9.999998102771052
    vertex 123.35348761904967 90.70189995123648 6.129622774268592
    vertex 123.3618913537508 90.70113274939959 7.988378223313933
  endloop
endfacet
facet normal 0.9916948723795673 0.12860585836712332 -0.0013465844679468235
  outer loop
    vertex 123.3588186752739 90.70189995123648 9.999998102771052
    vertex 123.4865968266899 89.73132853210203 9.999998102771052
    vertex 123.3618913537508 90.70113274939959 7.988378223313933
  endloop
endfacet
facet normal 0.9238794628603059 0.3826834035146949 0.00038830318331155685
  outer loop
    vertex 123.4838420286589 89.73132853210203 0.0
    vertex 123.85589235485803 88.82689995123648 6.129622774268592
    vertex 123.85846861305126 88.82689995123648 0.0
  endloop
endfacet
facet normal 0.9238794628603059 0.3826834035146949 0.00038830318331155685
  outer loop
    vertex 123.85589235485803 88.82689995123648 6.129622774268592
    vertex 123.4838420286589 89.73132853210203 0.0
    vertex 123.48126577046568 89.73132853210203 6.129622774268592
  endloop
endfacet
facet normal 0.9238787844522527 0.3826831225088785 -0.0012725509353132976
  outer loop
    vertex 123.48126577046568 89.73132853210203 6.129622774268592
    vertex 123.86122341108225 88.82689995123648 9.999998102771052
    vertex 123.85589235485803 88.82689995123648 6.129622774268592
  endloop
endfacet
facet normal 0.9238787844522527 0.3826831225088785 -0.0012725509353132976
  outer loop
    vertex 123.86122341108225 88.82689995123648 9.999998102771052
    vertex 123.48126577046568 89.73132853210203 6.129622774268592
    vertex 123.4865968266899 89.73132853210203 9.999998102771052
  endloop
endfacet
facet normal -0.7933528666058685 -0.6087610655372204 0.0010927644940254238
  outer loop
    vertex 123.86122341108225 88.82689995123648 9.999998102771052
    vertex 123.95438448654863 88.70189995123648 7.999999999999999
    vertex 123.95713928457963 88.70189995123648 9.999998102771052
  endloop
endfacet
facet normal -0.7933528666058685 -0.6087610655372204 0.0010927644940254238
  outer loop
    vertex 123.95438448654863 88.70189995123648 7.999999999999999
    vertex 123.86122341108225 88.82689995123648 9.999998102771052
    vertex 123.9518082283554 88.70189995123648 6.129622774268592
  endloop
endfacet
facet normal -0.7933528666058685 -0.6087610655372204 0.0010927644940254238
  outer loop
    vertex 123.9518082283554 88.70189995123648 6.129622774268592
    vertex 123.86122341108225 88.82689995123648 9.999998102771052
    vertex 123.85589235485803 88.82689995123648 6.129622774268592
  endloop
endfacet
facet normal 0.7930001653702142 0.6092214190373284 1.757716890774024e-05
  outer loop
    vertex 123.85846861305126 88.82689995123648 0.0
    vertex 124.45441344779336 88.05024952178692 7.999999999999999
    vertex 124.45441344779336 88.05024952178692 0.0
  endloop
endfacet
facet normal 0.7930001653702142 0.6092214190373284 1.757716890774024e-05
  outer loop
    vertex 124.45441344779336 88.05024952178692 7.999999999999999
    vertex 123.85846861305126 88.82689995123648 0.0
    vertex 123.9518082283554 88.70189995123648 6.129622774268592
  endloop
endfacet
facet normal 0.7930001653702142 0.6092214190373284 1.757716890774024e-05
  outer loop
    vertex 123.9518082283554 88.70189995123648 6.129622774268592
    vertex 123.85846861305126 88.82689995123648 0.0
    vertex 123.85589235485803 88.82689995123648 6.129622774268592
  endloop
endfacet
facet normal 0.7930001653702142 0.6092214190373284 1.757716890774024e-05
  outer loop
    vertex 123.95438448654863 88.70189995123648 7.999999999999999
    vertex 124.45441344779336 88.05024952178692 7.999999999999999
    vertex 123.9518082283554 88.70189995123648 6.129622774268592
  endloop
endfacet
facet normal -0.00015836601566910076 4.445634205796686e-05 0.9999999864719193
  outer loop
    vertex 131.94822769958 88.70204964038564 9.999997536338343
    vertex 130.3505243668115 88.82704964038564 9.999369788130046
    vertex 130.25460762865353 88.70204964038564 9.999997536338343
  endloop
endfacet
facet normal -0.00015836601566910076 4.445634205796686e-05 0.9999999864719193
  outer loop
    vertex 130.3505243668115 88.82704964038564 9.999369788130046
    vertex 131.94822769958 88.70204964038564 9.999997536338343
    vertex 130.72515008654327 89.73147822125118 9.999997536338343
  endloop
endfacet
facet normal -0.00015836601566910076 4.445634205796686e-05 0.9999999864719193
  outer loop
    vertex 130.72515008654327 89.73147822125118 9.999997536338343
    vertex 131.94822769958 88.70204964038564 9.999997536338343
    vertex 130.85292823795928 90.70204964038564 9.999997536338343
  endloop
endfacet
facet normal -0.00015836601566910076 4.445634205796686e-05 0.9999999864719193
  outer loop
    vertex 130.35052436681153 92.57704964038564 9.999369788130046
    vertex 131.94822769958003 92.70204964038562 9.999997536338343
    vertex 130.25460849331415 92.70204964038562 9.999369788130046
  endloop
endfacet
facet normal -0.00015836601566910076 4.445634205796686e-05 0.9999999864719193
  outer loop
    vertex 131.94822769958003 92.70204964038562 9.999997536338343
    vertex 130.35052436681153 92.57704964038564 9.999369788130046
    vertex 130.72515095120386 91.6726210595201 9.999369788130046
  endloop
endfacet
facet normal -0.00015836601566910076 4.445634205796686e-05 0.9999999864719193
  outer loop
    vertex 131.94822769958003 92.70204964038562 9.999997536338343
    vertex 130.72515095120386 91.6726210595201 9.999369788130046
    vertex 130.85292823795928 90.70204964038564 9.999997536338343
  endloop
endfacet
facet normal -0.00015836601566910076 4.445634205796686e-05 0.9999999864719193
  outer loop
    vertex 131.94822769958003 92.70204964038562 9.999997536338343
    vertex 130.85292823795928 90.70204964038564 9.999997536338343
    vertex 131.94822769958 88.70204964038564 9.999997536338343
  endloop
endfacet
facet normal -0.00015836601566910076 4.445634205796686e-05 0.9999999864719193
  outer loop
    vertex 131.94822769958003 92.70204964038562 9.999997536338343
    vertex 131.94822769958 88.70204964038564 9.999997536338343
    vertex 133.10292823795928 90.70204964038564 10.005584536338342
  endloop
endfacet
facet normal -0.00015836601566910076 4.445634205796686e-05 0.9999999864719193
  outer loop
    vertex 130.72515008654327 89.73147822125118 9.999997536338343
    vertex 123.4865968266899 91.67247137037094 9.999998102771052
    vertex 123.3588186752739 90.70189995123648 9.999998102771052
  endloop
endfacet
facet normal -0.00015836601566910076 4.445634205796686e-05 0.9999999864719193
  outer loop
    vertex 123.4865968266899 91.67247137037094 9.999998102771052
    vertex 130.72515008654327 89.73147822125118 9.999997536338343
    vertex 130.85292823795928 90.70204964038564 9.999997536338343
  endloop
endfacet
facet normal -0.7933531577183154 0.6087603014237044 -0.0012893986576714377
  outer loop
    vertex 130.25460762865353 88.70204964038564 9.999997536338343
    vertex 130.35366000609514 88.82689995123648 7.999372251791703
    vertex 130.2577432679372 88.70189995123648 7.999999999999999
  endloop
endfacet
facet normal -0.7933531577183154 0.6087603014237044 -0.0012893986576714377
  outer loop
    vertex 130.35366000609514 88.82689995123648 7.999372251791703
    vertex 130.25460762865353 88.70204964038564 9.999997536338343
    vertex 130.3505243668115 88.82704964038564 9.999369788130046
  endloop
endfacet
facet normal 0.0 -0.999999997199138 7.484466656264378e-05
  outer loop
    vertex 131.94822769958 88.70204964038564 9.999997536338343
    vertex 130.2577432679372 88.70189995123648 7.999999999999999
    vertex 131.95136333886367 88.70189995123648 7.999999999999999
  endloop
endfacet
facet normal 0.0 -0.999999997199138 7.484466656264378e-05
  outer loop
    vertex 130.2577432679372 88.70189995123648 7.999999999999999
    vertex 131.94822769958 88.70204964038564 9.999997536338343
    vertex 130.25460762865353 88.70204964038564 9.999997536338343
  endloop
endfacet
facet normal 0.8660228732404003 -0.5000024364581814 0.001395191859216656
  outer loop
    vertex 133.10606387724292 90.70189995123648 8.005586999999998
    vertex 131.94822769958 88.70204964038564 9.999997536338343
    vertex 131.95136333886367 88.70189995123648 7.999999999999999
  endloop
endfacet
facet normal 0.8660228732404003 -0.5000024364581814 0.001395191859216656
  outer loop
    vertex 131.94822769958 88.70204964038564 9.999997536338343
    vertex 133.10606387724292 90.70189995123648 8.005586999999998
    vertex 133.10292823795928 90.70204964038564 10.005584536338342
  endloop
endfacet
facet normal 0.8660230517819281 0.5000023304603795 0.0013203471155872103
  outer loop
    vertex 131.95136333886367 92.70189995123648 7.999999999999999
    vertex 133.10292823795928 90.70204964038564 10.005584536338342
    vertex 133.10606387724292 90.70189995123648 8.005586999999998
  endloop
endfacet
facet normal 0.8660230517819281 0.5000023304603795 0.0013203471155872103
  outer loop
    vertex 133.10292823795928 90.70204964038564 10.005584536338342
    vertex 131.95136333886367 92.70189995123648 7.999999999999999
    vertex 131.94822769958003 92.70204964038562 9.999997536338343
  endloop
endfacet
facet normal 2.774152410311991e-08 0.9999999971991408 -7.484462306888402e-05
  outer loop
    vertex 130.25460849331415 92.70204964038562 9.999369788130046
    vertex 131.95136333886367 92.70189995123648 7.999999999999999
    vertex 130.2577441325978 92.70189995123648 7.999372251791703
  endloop
endfacet
facet normal 2.774152410311991e-08 0.9999999971991408 -7.484462306888402e-05
  outer loop
    vertex 131.95136333886367 92.70189995123648 7.999999999999999
    vertex 130.25460849331415 92.70204964038562 9.999369788130046
    vertex 131.94822769958003 92.70204964038562 9.999997536338343
  endloop
endfacet
facet normal -0.7933527707194847 -0.6087609919610104 -0.0011982730754347961
  outer loop
    vertex 130.35052436681153 92.57704964038564 9.999369788130046
    vertex 130.2577441325978 92.70189995123648 7.999372251791703
    vertex 130.35366000609517 92.57689995123648 7.999372251791703
  endloop
endfacet
facet normal -0.7933527707194847 -0.6087609919610104 -0.0011982730754347961
  outer loop
    vertex 130.2577441325978 92.70189995123648 7.999372251791703
    vertex 130.35052436681153 92.57704964038564 9.999369788130046
    vertex 130.25460849331415 92.70204964038562 9.999369788130046
  endloop
endfacet
facet normal -0.923878601271908 -0.3826830466330954 -0.0014198350169058566
  outer loop
    vertex 130.72515095120386 91.6726210595201 9.999369788130046
    vertex 130.35366000609517 92.57689995123648 7.999372251791703
    vertex 130.72828659048753 91.67247137037094 7.999372251791703
  endloop
endfacet
facet normal -0.923878601271908 -0.3826830466330954 -0.0014198350169058566
  outer loop
    vertex 130.35366000609517 92.57689995123648 7.999372251791703
    vertex 130.72515095120386 91.6726210595201 9.999369788130046
    vertex 130.35052436681153 92.57704964038564 9.999369788130046
  endloop
endfacet
facet normal -0.9914436636421898 -0.1305261503243877 -0.0015446375781571892
  outer loop
    vertex 130.85292823795928 90.70204964038564 9.999997536338343
    vertex 130.72828659048753 91.67247137037094 7.999372251791703
    vertex 130.85606387724292 90.70189995123648 7.999999999999999
  endloop
endfacet
facet normal -0.9914436636421898 -0.1305261503243877 -0.0015446375781571892
  outer loop
    vertex 130.72828659048753 91.67247137037094 7.999372251791703
    vertex 130.85292823795928 90.70204964038564 9.999997536338343
    vertex 130.72515095120386 91.6726210595201 9.999369788130046
  endloop
endfacet
facet normal -0.9238784744141778 0.3826831360739314 -0.0014771183949190449
  outer loop
    vertex 130.3505243668115 88.82704964038564 9.999369788130046
    vertex 130.7282857258269 89.73132853210203 7.999999999999999
    vertex 130.35366000609514 88.82689995123648 7.999372251791703
  endloop
endfacet
facet normal -0.9238784744141778 0.3826831360739314 -0.0014771183949190449
  outer loop
    vertex 130.7282857258269 89.73132853210203 7.999999999999999
    vertex 130.3505243668115 88.82704964038564 9.999369788130046
    vertex 130.72515008654327 89.73147822125118 9.999997536338343
  endloop
endfacet
facet normal 0.001377399015499756 -2.4903350622506857e-18 0.9999990513855262
  outer loop
    vertex 122.26351921365313 88.70189995123648 9.999998102771052
    vertex 122.26351921365315 92.70189995123648 9.999998102771052
    vertex 121.1088186752739 90.70189995123648 10.00558510277105
  endloop
endfacet
facet normal 0.001377399015499756 -2.4903350622506857e-18 0.9999990513855262
  outer loop
    vertex 122.26351921365315 92.70189995123648 9.999998102771052
    vertex 122.26351921365313 88.70189995123648 9.999998102771052
    vertex 123.4865968266899 89.73132853210203 9.999998102771052
  endloop
endfacet
facet normal 0.001377399015499756 -2.4903350622506857e-18 0.9999990513855262
  outer loop
    vertex 123.4865968266899 89.73132853210203 9.999998102771052
    vertex 122.26351921365313 88.70189995123648 9.999998102771052
    vertex 123.86122341108225 88.82689995123648 9.999998102771052
  endloop
endfacet
facet normal 0.001377399015499756 -2.4903350622506857e-18 0.9999990513855262
  outer loop
    vertex 123.86122341108225 88.82689995123648 9.999998102771052
    vertex 122.26351921365313 88.70189995123648 9.999998102771052
    vertex 123.95713928457963 88.70189995123648 9.999998102771052
  endloop
endfacet
facet normal 0.001377399015499756 -2.4903350622506857e-18 0.9999990513855262
  outer loop
    vertex 122.26351921365315 92.70189995123648 9.999998102771052
    vertex 123.4865968266899 89.73132853210203 9.999998102771052
    vertex 123.3588186752739 90.70189995123648 9.999998102771052
  endloop
endfacet
facet normal 0.001377399015499756 -2.4903350622506857e-18 0.9999990513855262
  outer loop
    vertex 122.26351921365315 92.70189995123648 9.999998102771052
    vertex 123.86122341108225 92.57689995123648 9.999998102771052
    vertex 123.95713928457963 92.70189995123648 9.999998102771052
  endloop
endfacet
facet normal 0.001377399015499756 -2.4903350622506857e-18 0.9999990513855262
  outer loop
    vertex 123.86122341108225 92.57689995123648 9.999998102771052
    vertex 122.26351921365315 92.70189995123648 9.999998102771052
    vertex 123.4865968266899 91.67247137037094 9.999998102771052
  endloop
endfacet
facet normal 0.001377399015499756 -2.4903350622506857e-18 0.9999990513855262
  outer loop
    vertex 123.4865968266899 91.67247137037094 9.999998102771052
    vertex 122.26351921365315 92.70189995123648 9.999998102771052
    vertex 123.3588186752739 90.70189995123648 9.999998102771052
  endloop
endfacet
facet normal 0.0 1.0 2.5013040291447985e-18
  outer loop
    vertex 122.26351921365315 92.70189995123648 9.999998102771052
    vertex 123.95438448654863 92.70189995123648 7.999999999999999
    vertex 122.26076441562216 92.70189995123648 7.999999999999999
  endloop
endfacet
facet normal 0.0 1.0 2.5013040291447985e-18
  outer loop
    vertex 123.95438448654863 92.70189995123648 7.999999999999999
    vertex 122.26351921365315 92.70189995123648 9.999998102771052
    vertex 123.95713928457963 92.70189995123648 9.999998102771052
  endloop
endfacet
facet normal -0.8660233447299956 0.5000021434611074 0.0011928608339959554
  outer loop
    vertex 122.26351921365315 92.70189995123648 9.999998102771052
    vertex 121.1060638772429 90.70189995123648 8.005586999999998
    vertex 121.1088186752739 90.70189995123648 10.00558510277105
  endloop
endfacet
facet normal -0.8660233447299956 0.5000021434611074 0.0011928608339959554
  outer loop
    vertex 121.1060638772429 90.70189995123648 8.005586999999998
    vertex 122.26351921365315 92.70189995123648 9.999998102771052
    vertex 122.26076441562216 92.70189995123648 7.999999999999999
  endloop
endfacet
facet normal 0.0 -1.0 -2.5013040291447985e-18
  outer loop
    vertex 123.95713928457963 88.70189995123648 9.999998102771052
    vertex 122.26076441562213 88.70189995123648 7.999999999999999
    vertex 123.95438448654863 88.70189995123648 7.999999999999999
  endloop
endfacet
facet normal 0.0 -1.0 -2.5013040291447985e-18
  outer loop
    vertex 122.26076441562213 88.70189995123648 7.999999999999999
    vertex 123.95713928457963 88.70189995123648 9.999998102771052
    vertex 122.26351921365313 88.70189995123648 9.999998102771052
  endloop
endfacet
facet normal -0.991443648515616 0.1305260325442449 -0.0015641759180840707
  outer loop
    vertex 123.3588186752739 90.70189995123648 9.999998102771052
    vertex 123.4896695051668 91.67170416853405 7.988378223313933
    vertex 123.3618913537508 90.70113274939959 7.988378223313933
  endloop
endfacet
facet normal -0.991443648515616 0.1305260325442449 -0.0015641759180840707
  outer loop
    vertex 123.4896695051668 91.67170416853405 7.988378223313933
    vertex 123.3588186752739 90.70189995123648 9.999998102771052
    vertex 123.4865968266899 91.67247137037094 9.999998102771052
  endloop
endfacet
facet normal 0.001550794176263198 -0.00020416592654904075 -0.9999987766761006
  outer loop
    vertex 123.4896695051668 91.67170416853405 7.988378223313933
    vertex 130.7282857258269 89.73132853210203 7.999999999999999
    vertex 123.3618913537508 90.70113274939959 7.988378223313933
  endloop
endfacet
facet normal 0.001550794176263198 -0.00020416592654904075 -0.9999987766761006
  outer loop
    vertex 130.7282857258269 89.73132853210203 7.999999999999999
    vertex 123.4896695051668 91.67170416853405 7.988378223313933
    vertex 130.85606387724292 90.70189995123648 7.999999999999999
  endloop
endfacet
facet normal -0.1305676070700256 -0.9914394078105424 2.4985770619533757e-05
  outer loop
    vertex 130.7282857258269 89.73132853210203 7.999999999999999
    vertex 123.3588186752739 90.70189995123648 9.999998102771052
    vertex 123.3618913537508 90.70113274939959 7.988378223313933
  endloop
endfacet
facet normal -0.1305676070700256 -0.9914394078105424 2.4985770619533757e-05
  outer loop
    vertex 123.3588186752739 90.70189995123648 9.999998102771052
    vertex 130.7282857258269 89.73132853210203 7.999999999999999
    vertex 130.72515008654327 89.73147822125118 9.999997536338343
  endloop
endfacet
facet normal 0.13056760707002563 0.9914394078105424 -2.498577061955197e-05
  outer loop
    vertex 123.4865968266899 91.67247137037094 9.999998102771052
    vertex 130.85606387724292 90.70189995123648 7.999999999999999
    vertex 123.4896695051668 91.67170416853405 7.988378223313933
  endloop
endfacet
facet normal 0.13056760707002563 0.9914394078105424 -2.498577061955197e-05
  outer loop
    vertex 130.85606387724292 90.70189995123648 7.999999999999999
    vertex 123.4865968266899 91.67247137037094 9.999998102771052
    vertex 130.85292823795928 90.70204964038564 9.999997536338343
  endloop
endfacet
facet normal 0.9914346602869754 -0.13052484922149546 -0.004536310985376816
  outer loop
    vertex 123.35348761904967 90.70189995123648 6.129622774268592
    vertex 123.4896695051668 91.67170416853405 7.988378223313933
    vertex 123.3618913537508 90.70113274939959 7.988378223313933
  endloop
endfacet
facet normal 0.9914346602869754 -0.13052484922149546 -0.004536310985376816
  outer loop
    vertex 123.4896695051668 91.67170416853405 7.988378223313933
    vertex 123.35348761904967 90.70189995123648 6.129622774268592
    vertex 123.48126577046568 91.67247137037094 6.129622774268592
  endloop
endfacet
endsolid Untitled-5712f5e7
